<svg xmlns="http://www.w3.org/2000/svg" xmlns:xlink="http://www.w3.org/1999/xlink" width="203.266" height="45.995" viewBox="0 0 203.266 45.995"><defs><style>.a{fill:#7c24ef;}.b{fill:#1660ea;}.c{clip-path:url(#a);}</style><clipPath id="a"><path class="a" d="M-228.291,545.694l.021-7.5,3.746,2.162a6.678,6.678,0,0,1,3.339,5.8l-.01,3.633Z" transform="translate(228.291 -538.194)"/></clipPath></defs><g transform="translate(4.002 -2.829)"><g transform="translate(44.056 15.281)"><path class="a" d="M1078.015-348.682h-3.273a.49.49,0,0,0-.49.491v1.406l-.478-.571a5.215,5.215,0,0,0-1.618-1.079,5.652,5.652,0,0,0-2.483-.555,6.45,6.45,0,0,0-4.8,2.3,7.7,7.7,0,0,0-2.151,5.433,7.7,7.7,0,0,0,2.151,5.432,6.449,6.449,0,0,0,4.8,2.3,5.678,5.678,0,0,0,1.642-.238,5.462,5.462,0,0,0,1.276-.54,6.56,6.56,0,0,0,.909-.679q.424-.377.555-.524a2.3,2.3,0,0,0,.2-.239v1.264a4.056,4.056,0,0,1-1.1,3,4.054,4.054,0,0,1-3,1.1,5.19,5.19,0,0,1-2.374-.562,5.416,5.416,0,0,1-1.426-.918c-.052-.056-.1-.114-.152-.173a.49.49,0,0,0-.345-.165.491.491,0,0,0-.359.134l-1.962,1.846a.491.491,0,0,0-.041.67,4.949,4.949,0,0,0,.848.832,10.887,10.887,0,0,0,1.4.964,8.842,8.842,0,0,0,2.02.816,9.3,9.3,0,0,0,2.543.347,8.071,8.071,0,0,0,5.864-2.274,7.528,7.528,0,0,0,2.336-5.618v-13.722A.49.49,0,0,0,1078.015-348.682Zm-4.85,10.111a3.453,3.453,0,0,1-2.544,1.109,3.238,3.238,0,0,1-2.464-1.079,3.819,3.819,0,0,1-1.011-2.721,3.8,3.8,0,0,1,1.009-2.712,3.261,3.261,0,0,1,2.467-1.071,3.462,3.462,0,0,1,2.544,1.1,3.675,3.675,0,0,1,1.087,2.681,3.7,3.7,0,0,1-1.084,2.691Z" transform="translate(-923.296 355.618)"/><path class="a" d="M968.3-347.156a5.584,5.584,0,0,0-4.323-1.834,5.03,5.03,0,0,0-2.413.617,6.549,6.549,0,0,0-1.487.982,7.847,7.847,0,0,0-.524.608v-1.285a.611.611,0,0,0-.61-.61h-3.034a.61.61,0,0,0-.61.61v14.254a.61.61,0,0,0,.61.61h3.035a.61.61,0,0,0,.61-.61v-7.435a3.874,3.874,0,0,1,.855-2.69,2.95,2.95,0,0,1,2.3-.947,2.876,2.876,0,0,1,2.165.869,3.165,3.165,0,0,1,.841,2.29v7.913a.61.61,0,0,0,.61.61h3.033a.61.61,0,0,0,.61-.61v-8.39a7.063,7.063,0,0,0-1.673-4.952Z" transform="translate(-832.174 355.617)"/><g transform="translate(116.753 0.151)"><path class="a" d="M912.463-393.453a2.566,2.566,0,0,0-1.849-.648,2.308,2.308,0,0,0-1.71.648,2.324,2.324,0,0,0-.649,1.719,2.345,2.345,0,0,0,.64,1.719,2.312,2.312,0,0,0,1.719.648,2.573,2.573,0,0,0,1.849-.647,2.271,2.271,0,0,0,.679-1.721A2.264,2.264,0,0,0,912.463-393.453Z" transform="translate(-908.252 394.104)"/><path class="a" d="M489.475-343.51a.61.61,0,0,0-.61.61v3.181h.018v10.6a.61.61,0,0,0,.61.61h3.05a.61.61,0,0,0,.61-.61V-342.9a.61.61,0,0,0-.61-.61Z" transform="translate(-488.536 350.772)"/></g><path class="a" d="M799.66-371.837l-4.219-7.456.4-.215a4.33,4.33,0,0,0,1-.693,9.1,9.1,0,0,0,1.148-1.219,6.567,6.567,0,0,0,.981-1.864,7.229,7.229,0,0,0,.416-2.481,6.937,6.937,0,0,0-2.15-5.157,7.456,7.456,0,0,0-5.427-2.108h-9.177a.61.61,0,0,0-.432.178.61.61,0,0,0-.178.432v20.883a.61.61,0,0,0,.178.432.61.61,0,0,0,.432.178h3.532a.61.61,0,0,0,.432-.178.609.609,0,0,0,.178-.432v-6.518a.609.609,0,0,1,.178-.431.608.608,0,0,1,.431-.179h3.13a.609.609,0,0,1,.534.316l3.906,7.107a.608.608,0,0,0,.534.316h3.649a.61.61,0,0,0,.521-.306A.61.61,0,0,0,799.66-371.837ZM793.8-383.743a2.981,2.981,0,0,1-2.15.825h-4.276a.609.609,0,0,1-.431-.179.609.609,0,0,1-.178-.431v-4.623a.609.609,0,0,1,.178-.431.609.609,0,0,1,.431-.179h4.276a2.938,2.938,0,0,1,2.15.848,2.894,2.894,0,0,1,.856,2.142,2.712,2.712,0,0,1-.854,2.028Z" transform="translate(-684.786 393.338)"/><path class="b" d="M670.466-393.03h-3.035a.61.61,0,0,0-.432.179.608.608,0,0,0-.178.432v7.913l-.478-.571a5.468,5.468,0,0,0-1.626-1.079,5.634,5.634,0,0,0-2.473-.554,6.957,6.957,0,0,0-5.217,2.334,7.993,7.993,0,0,0-2.212,5.711,7.99,7.99,0,0,0,2.212,5.711,6.955,6.955,0,0,0,5.217,2.336,5.766,5.766,0,0,0,1.633-.231,5.434,5.434,0,0,0,1.276-.533,6.227,6.227,0,0,0,.916-.679q.424-.377.555-.524a2.369,2.369,0,0,0,.2-.239v1.287a.609.609,0,0,0,.178.432.609.609,0,0,0,.432.178h3.035a.609.609,0,0,0,.432-.178.61.61,0,0,0,.179-.432v-20.883a.609.609,0,0,0-.609-.609ZM665.713-375.6a3.517,3.517,0,0,1-2.682,1.2,3.518,3.518,0,0,1-2.683-1.2,4.347,4.347,0,0,1-1.109-3.068,4.317,4.317,0,0,1,1.109-3.059,3.525,3.525,0,0,1,2.683-1.194,3.525,3.525,0,0,1,2.681,1.194,4.317,4.317,0,0,1,1.109,3.059,4.347,4.347,0,0,1-1.109,3.068Z" transform="translate(-575.504 393.338)"/><path class="b" d="M549.7-341.249a7.511,7.511,0,0,0-2.2-5.526,7.471,7.471,0,0,0-5.519-2.212,7.774,7.774,0,0,0-5.69,2.366,7.737,7.737,0,0,0-2.373,5.678,7.682,7.682,0,0,0,2.4,5.681,7.983,7.983,0,0,0,5.811,2.366,9.845,9.845,0,0,0,2.334-.277,8.729,8.729,0,0,0,1.842-.64,9.917,9.917,0,0,0,1.34-.825,8.392,8.392,0,0,0,.825-.654.452.452,0,0,0,.133-.323.455.455,0,0,0-.1-.282l-1.627-2.095a.457.457,0,0,0-.34-.176.458.458,0,0,0-.355.144l-.081.086a4.313,4.313,0,0,1-1.44.949,5.3,5.3,0,0,1-2.228.469,4.292,4.292,0,0,1-2.759-.871,3.545,3.545,0,0,1-1.34-2.134h11.2Zm-11.359-1.264a4.173,4.173,0,0,1,1.333-2.051,3.493,3.493,0,0,1,2.3-.785,3.387,3.387,0,0,1,2.289.8,3.51,3.51,0,0,1,1.177,2.035Z" transform="translate(-472.037 355.617)"/><g transform="translate(55.319 0.149)"><path class="b" d="M491.061-393.463a2.552,2.552,0,0,0-1.842-.648,2.338,2.338,0,0,0-1.726.648,2.324,2.324,0,0,0-.648,1.719,2.322,2.322,0,0,0,.648,1.719,2.332,2.332,0,0,0,1.726.648,2.545,2.545,0,0,0,1.834-.648,2.262,2.262,0,0,0,.679-1.719,2.284,2.284,0,0,0-.67-1.719Z" transform="translate(-486.842 394.114)"/><path class="b" d="M489.475-343.51a.61.61,0,0,0-.61.61v3.181h.018v10.6a.61.61,0,0,0,.61.61h3.05a.61.61,0,0,0,.61-.61V-342.9a.61.61,0,0,0-.61-.61Z" transform="translate(-488.573 350.774)"/></g><path class="b" d="M408.387-395.056a8.035,8.035,0,0,0-1.4-.124q-4.906,0-4.905,5.364v2.05h-2.2v3.791h2.2v11.206h4.269v-11.207h3.466v-3.791h-3.466v-1.9a1.612,1.612,0,0,1,.54-1.225,1.92,1.92,0,0,1,1.357-.5,3.583,3.583,0,0,1,.969.1.484.484,0,0,0,.416-.088.485.485,0,0,0,.187-.382v-2.589a.491.491,0,0,0-.339-.463h0A8.636,8.636,0,0,0,408.387-395.056Z" transform="translate(-356.13 395.18)"/><g transform="translate(37.185 0.149)"><path class="b" d="M360.268-393.463a2.572,2.572,0,0,0-1.849-.648,2.318,2.318,0,0,0-1.712.648,2.325,2.325,0,0,0-.647,1.719,2.341,2.341,0,0,0,.64,1.719,2.3,2.3,0,0,0,1.719.648,2.566,2.566,0,0,0,1.849-.648,2.266,2.266,0,0,0,.677-1.719,2.268,2.268,0,0,0-.676-1.719Z" transform="translate(-356.056 394.114)"/><path class="b" d="M361.868-346.84h-3.049a.609.609,0,0,0-.431.178.609.609,0,0,0-.179.431v14.255a.609.609,0,0,0,.178.432.609.609,0,0,0,.432.179h3.049a.61.61,0,0,0,.432-.178.61.61,0,0,0,.179-.432v-14.255A.61.61,0,0,0,361.868-346.84Z" transform="translate(-357.899 353.626)"/></g><path class="b" d="M257.161-347.156a5.585,5.585,0,0,0-4.329-1.834,5.03,5.03,0,0,0-2.412.617,6.527,6.527,0,0,0-1.486.981c-.186.2-.36.4-.525.608v-1.285a.61.61,0,0,0-.178-.432.61.61,0,0,0-.432-.178h-3.034a.61.61,0,0,0-.432.178.609.609,0,0,0-.178.432v14.255a.609.609,0,0,0,.179.431.609.609,0,0,0,.431.178H247.8a.609.609,0,0,0,.431-.178.609.609,0,0,0,.179-.431v-7.436a3.875,3.875,0,0,1,.856-2.69,2.949,2.949,0,0,1,2.3-.947,2.877,2.877,0,0,1,2.165.869,3.163,3.163,0,0,1,.84,2.29v7.913a.61.61,0,0,0,.611.609h3.033a.609.609,0,0,0,.431-.178.609.609,0,0,0,.179-.431v-8.39A7.064,7.064,0,0,0,257.161-347.156Z" transform="translate(-223.272 355.617)"/><path class="b" d="M117.931-393.03h-3.511a.611.611,0,0,0-.611.61v12.491a5.159,5.159,0,0,1-1.433,3.714,4.611,4.611,0,0,1-3.452,1.493,4.625,4.625,0,0,1-3.46-1.5,5.151,5.151,0,0,1-1.44-3.706V-392.42a.609.609,0,0,0-.178-.432.609.609,0,0,0-.432-.179H99.9a.61.61,0,0,0-.61.61v12.491a9.139,9.139,0,0,0,2.747,6.758,9.389,9.389,0,0,0,6.882,2.721,9.375,9.375,0,0,0,6.881-2.721,9.133,9.133,0,0,0,2.747-6.758V-392.42a.61.61,0,0,0-.181-.434.61.61,0,0,0-.435-.177Z" transform="translate(-99.286 393.338)"/></g><g transform="translate(-4.002 2.829)"><g transform="translate(13.638 17.54)"><g transform="translate(0 0)"><g class="c"><g transform="translate(0.01 0.202)"><path class="a" d="M-221.154,542.707l-6.679-3.856a.278.278,0,0,0-.417.24l-.01,3.553a5.984,5.984,0,0,0,2.993,5.2l3.677,2.123a.278.278,0,0,0,.417-.24l.02-7.02" transform="translate(228.261 -538.813)"/></g></g></g></g><path class="b" d="M-269.978,508.629v21.3a6.442,6.442,0,0,0,3.127,5.523l18.453,11.072a.278.278,0,0,0,.421-.239V539.7a5.842,5.842,0,0,0-2.582-4.848l-4.5-3.024a.278.278,0,0,0-.433.227l-.053,4.405a.278.278,0,0,1-.423.234l-6.645-4.031a6.384,6.384,0,0,1-3-5.582l.153-5.924a.278.278,0,0,1,.412-.237l3.912,2.143a.278.278,0,0,0,.412-.244v-5.7a6.33,6.33,0,0,0-3.181-5.491l-5.656-3.243A.278.278,0,0,0-269.978,508.629Z" transform="translate(269.978 -500.574)"/><path class="a" d="M-227.878,511.989l10.727,5.953a6.914,6.914,0,0,1,3.558,6.165l-.222,12.843a.278.278,0,0,1-.42.235l-1.087-.645a6.771,6.771,0,0,1-3.317-5.925l.068-4.534a5.211,5.211,0,0,0-2.661-4.622l-4.4-2.467a5.212,5.212,0,0,1-2.661-4.545v-2.213A.278.278,0,0,1-227.878,511.989Z" transform="translate(241.929 -502.999)"/><path class="a" d="M-227.725,484.859a.278.278,0,0,1,.417-.241l18.134,10.424a6.436,6.436,0,0,1,3.313,5.74l-.21,21.08a.278.278,0,0,1-.42.237l-.98-.581A6.3,6.3,0,0,1-210.56,516l.063-13.381a4.852,4.852,0,0,0-2.477-4.3l-12.273-7.2a4.851,4.851,0,0,1-2.477-4.231Z" transform="translate(241.548 -484.581)"/></g></g></svg>